<svg width="65.3463" height="288.742" overflow="visible" style="display: block;" viewBox="0 0 65.3463 288.742" fill="none" xmlns="http://www.w3.org/2000/svg">
<path id="Vector" d="M0 136.789C14.1958 133.949 17.0349 127.948 17.0349 99.1791V36.6023C17.0349 12.6436 30.9559 0 56.8288 0H65.3463V14.5218H57.7447C39.107 14.5218 31.5512 21.485 31.5512 37.885V90.9791C31.5512 130.467 29.6737 136.789 15.1116 143.752C29.6279 150.395 31.5512 156.717 31.5512 196.205V250.857C31.5512 267.623 39.1528 274.22 57.7447 274.22H65.3463V288.742H56.8288C30.9101 288.742 17.0349 276.098 17.0349 252.094V187.959C17.0349 159.511 14.1958 153.189 0 150.349V136.743L0 136.789Z" fill="var(--fill-0, #F7F076)"/>
</svg>
