<svg fill="none" height="128" viewBox="0 0 128 128" width="128" xmlns="http://www.w3.org/2000/svg"><path d="m54.6444 93.4667c-.7938 4.2666-1.8521 7.0663-3.175 8.4003-1.3229 1.333-3.4395 2-6.6145 2-2.7781 0-4.7624-.534-5.9531-1.467-1.1906-.933-2.3812-3.8667-3.8364-8.8l-16.0071-56.2667c-.3968-1.4666-.6614-2.5333-.7937-3.3333 0-.6667-.2646-1.3333-.2646-1.8667 0-2.4.7937-4.4 2.1166-5.8666 1.4552-1.4667 3.3073-2.2667 5.5562-2.2667 2.249 0 3.9687.6667 5.1593 2 1.1907 1.3333 2.249 3.7333 3.0427 7.3333l11.2447 46.6667 9.5249-46.5333c.7937-3.6 1.852-6 3.3072-7.3334 1.4552-1.3333 3.7042-2 6.8791-2 3.175 0 5.2916.6667 6.7468 1.8667s2.5135 4 3.4396 8l9.3926 46 10.7155-44.9333c1.0583-4.5334 2.2489-7.4667 3.4395-8.9334 1.1906-1.4666 3.0423-2.1333 5.1593-2.1333 2.381 0 4.233.6667 5.424 2s1.852 3.3333 1.852 6c0 .5333 0 1.2-.265 2.1333-.264.9334-.396 1.8667-.661 2.9334l-16.1394 56.5333s-.2646.9333-.5292 1.6c-1.5875 5.867-4.6302 8.8-8.9957 8.8-3.175 0-5.2916-.533-6.4822-1.733-1.1907-1.2-2.249-4.0003-3.175-8.4003l-10.1864-50.2667-10.1863 50.2667z" fill="#334c9c"/></svg>