<svg width="117.333" height="64" overflow="visible" style="display: block;" viewBox="0 0 117.333 64" fill="none" xmlns="http://www.w3.org/2000/svg">
<g id="_&#227;&#131;&#172;&#227;&#130;&#164;&#227;&#131;&#164;&#227;&#131;&#188;_1" clip-path="url(#clip0_0_4)">
<path id="Vector" d="M13.7021 25.9285C13.4053 27.521 13.0096 28.5661 12.5149 29.0638C12.0202 29.5614 11.2288 29.8103 10.0416 29.8103C9.00281 29.8103 8.26082 29.6112 7.81563 29.2628C7.37043 28.9145 6.92524 27.8196 6.38111 25.9782L0.395728 4.97667C0.24733 4.42924 0.148398 4.0311 0.098932 3.7325C0.098932 3.48367 0 3.23484 0 3.03577C0 2.13997 0.296796 1.39347 0.791456 0.846034C1.33558 0.2986 2.02811 0 2.86903 0C3.70995 0 4.35301 0.248834 4.7982 0.746501C5.2434 1.24417 5.63912 2.13997 5.93592 3.48367L10.1405 20.902L13.7021 3.53344C13.9989 2.18974 14.3946 1.29393 14.9387 0.796268C15.4829 0.2986 16.3238 0.0497667 17.511 0.0497667C18.6981 0.0497667 19.4896 0.2986 20.0337 0.746501C20.5779 1.1944 20.9736 2.2395 21.3198 3.7325L24.8319 20.902L28.8387 4.13064C29.2344 2.43857 29.6796 1.3437 30.1248 0.796268C30.57 0.248834 31.2625 0 32.054 0C32.9444 0 33.6369 0.248834 34.0821 0.746501C34.5273 1.24417 34.7746 1.99067 34.7746 2.986C34.7746 3.18507 34.7746 3.4339 34.6757 3.78227C34.5767 4.13064 34.5273 4.47901 34.4283 4.87714L28.3935 25.9782C28.3935 25.9782 28.2946 26.3266 28.1956 26.5754C27.602 28.7652 26.4643 29.86 24.8319 29.86C23.6447 29.86 22.8533 29.661 22.4081 29.2131C21.9629 28.7652 21.5672 27.7201 21.2209 26.0778L17.412 7.31571L13.6031 26.0778L13.7021 25.9285Z" fill="var(--fill-0, #334C9C)"/>
<path id="Vector_2" d="M40.9084 27.6205C40.661 28.367 40.3148 28.9145 39.8696 29.2628C39.4244 29.6112 38.7813 29.8103 38.0393 29.8103C37.1984 29.8103 36.5059 29.5614 35.9618 29.1135C35.4177 28.6159 35.1703 28.0187 35.1703 27.2224C35.1703 26.9736 35.1703 26.7247 35.2198 26.4759C35.2198 26.2271 35.3187 25.9782 35.4671 25.7294L43.4311 3.1353C43.8763 1.84137 44.4205 0.995334 44.9646 0.597201C45.5087 0.199067 46.4486 0.0497667 47.8336 0.0497667C49.1197 0.0497667 50.0101 0.248834 50.6037 0.597201C51.1973 0.945568 51.692 1.7916 52.1866 3.08554L60.299 25.7294C60.398 25.9782 60.4969 26.2271 60.5464 26.4759C60.5464 26.7247 60.5958 26.9736 60.5958 27.2224C60.5958 28.0187 60.3485 28.6159 59.8044 29.1135C59.2603 29.6112 58.5677 29.86 57.7268 29.86C56.9848 29.86 56.3912 29.661 55.946 29.3126C55.5008 28.9642 55.1051 28.4168 54.9073 27.6703L53.5222 23.4899H42.3429L41.0073 27.6703L40.9084 27.6205ZM47.7841 6.22084L43.7774 18.6128H51.7909L47.7841 6.22084Z" fill="var(--fill-0, #334C9C)"/>
<path id="Vector_3" d="M65.394 3.18507C65.394 2.0902 65.6414 1.29393 66.136 0.796268C66.6307 0.248834 67.3727 0 68.362 0C69.3513 0 70.0933 0.248834 70.588 0.796268C71.0826 1.3437 71.33 2.13997 71.33 3.18507V12.3421L82.2125 0.895801C82.5093 0.597201 82.8061 0.398134 83.1523 0.248834C83.4986 0.0995335 83.8943 0 84.2406 0C85.032 0 85.6751 0.248834 86.1698 0.746501C86.7139 1.24417 86.9612 1.84137 86.9612 2.5381C86.9612 2.8367 86.9117 3.1353 86.8128 3.4339C86.7139 3.7325 86.5655 3.98134 86.3676 4.1804L78.552 12.1431L87.4559 24.4355C88.1979 25.4806 88.5441 26.3764 88.5441 27.0233C88.5441 27.8196 88.2968 28.5163 87.7527 29.014C87.2085 29.5117 86.5655 29.8103 85.774 29.8103C85.2299 29.8103 84.7352 29.661 84.2406 29.4121C83.7459 29.1633 83.3502 28.7652 82.9545 28.2177L74.3969 16.1244L71.33 19.21V26.6252C71.33 27.6703 71.0826 28.4666 70.588 29.014C70.0933 29.5614 69.3513 29.8103 68.362 29.8103C67.3727 29.8103 66.6307 29.5614 66.136 29.014C65.6414 28.4666 65.394 27.6703 65.394 26.6252V3.18507Z" fill="var(--fill-0, #334C9C)"/>
<path id="Vector_4" d="M93.3423 3.18507C93.3423 2.0902 93.5897 1.29393 94.0843 0.796268C94.579 0.248834 95.321 0 96.3103 0C97.2996 0 98.0416 0.248834 98.5857 0.796268C99.0804 1.3437 99.3772 2.13997 99.3772 3.18507V18.5132C99.3772 20.7527 99.8224 22.395 100.713 23.4401C101.603 24.4852 102.988 24.9829 104.967 24.9829C106.945 24.9829 108.38 24.4852 109.27 23.4401C110.161 22.395 110.606 20.7527 110.606 18.5132V3.18507C110.606 2.0902 110.853 1.29393 111.348 0.796268C111.843 0.248834 112.585 0 113.574 0C114.563 0 115.305 0.248834 115.8 0.796268C116.295 1.3437 116.542 2.13997 116.542 3.18507V19.1602C116.542 22.7434 115.553 25.4806 113.574 27.3717C111.595 29.2628 108.726 30.2084 105.016 30.2084C101.306 30.2084 98.3879 29.2628 96.4092 27.3717C94.4306 25.4806 93.3918 22.7434 93.3918 19.1602V3.18507H93.3423Z" fill="var(--fill-0, #334C9C)"/>
<path id="Vector_5" d="M5.34233 63.2037C4.00675 63.2037 3.01743 62.9051 2.52277 62.2582C1.97864 61.6112 1.73131 60.4168 1.73131 58.675V38.7683C1.73131 36.9767 1.97864 35.7823 2.52277 35.1353C3.06689 34.4883 4.00675 34.1897 5.34233 34.1897H15.3345C18.3024 34.1897 20.5284 34.8367 22.1113 36.0809C23.6447 37.325 24.4362 39.1664 24.4362 41.5552C24.4362 43.0482 24.1394 44.2426 23.5953 45.2379C23.0512 46.2333 22.1608 46.9798 21.023 47.5272C22.507 48.1244 23.6447 49.0202 24.3867 50.1649C25.1287 51.3095 25.475 52.703 25.475 54.395C25.475 57.2317 24.5351 59.4215 22.7544 60.9642C20.9241 62.507 18.3519 63.2535 14.9882 63.2535H5.44126L5.34233 63.2037ZM7.4199 39.1664V45.3375H14.1967C15.6807 45.3375 16.7195 45.0886 17.412 44.591C18.1046 44.0933 18.4508 43.297 18.4508 42.2022C18.4508 41.1073 18.1046 40.3608 17.4615 39.8631C16.8184 39.3655 15.7302 39.1664 14.1967 39.1664H7.46937H7.4199ZM7.4199 50.3639V57.9782H14.4441C16.1259 57.9782 17.3131 57.6796 18.0551 57.0824C18.7971 56.4852 19.1928 55.5397 19.1928 54.196C19.1928 52.8523 18.7971 51.8569 18.0551 51.2597C17.3131 50.6625 16.0764 50.3639 14.3451 50.3639H7.32097H7.4199Z" fill="var(--fill-0, #334C9C)"/>
<path id="Vector_6" d="M29.0365 36.9269C29.0365 35.832 29.2839 35.0358 29.7785 34.5381C30.2732 33.9907 31.0152 33.7418 32.0045 33.7418C32.9938 33.7418 33.7358 33.9907 34.2799 34.5381C34.7746 35.0855 35.0714 35.8818 35.0714 36.9269V52.2551C35.0714 54.4946 35.5166 56.1369 36.407 57.182C37.2974 58.2271 38.6824 58.7247 40.6116 58.7247C42.5408 58.7247 44.0247 58.2271 44.9151 57.182C45.8055 56.1369 46.2507 54.4946 46.2507 52.2551V36.9269C46.2507 35.832 46.498 35.0358 46.9927 34.5381C47.4874 33.9907 48.2293 33.7418 49.2187 33.7418C50.208 33.7418 50.95 33.9907 51.4446 34.5381C51.9393 35.0855 52.1866 35.8818 52.1866 36.9269V52.902C52.1866 56.4852 51.1973 59.2224 49.2187 61.1135C47.24 63.0047 44.371 63.9502 40.6611 63.9502C36.9511 63.9502 34.0326 63.0047 32.054 61.1135C30.0753 59.2224 29.0365 56.4852 29.0365 52.902V36.9269Z" fill="var(--fill-0, #334C9C)"/>
<path id="Vector_7" d="M57.3806 36.9269C57.3806 35.832 57.6279 35.0358 58.1225 34.5381C58.6172 33.9907 59.3592 33.7418 60.3485 33.7418C61.3378 33.7418 62.0798 33.9907 62.5745 34.5381C63.0691 35.0855 63.3165 35.8818 63.3165 36.9269V60.367C63.3165 61.4121 63.0691 62.2084 62.5745 62.7558C62.0798 63.3033 61.3378 63.5521 60.3485 63.5521C59.3592 63.5521 58.6172 63.3033 58.1225 62.7558C57.6279 62.2084 57.3806 61.4121 57.3806 60.367V36.9269Z" fill="var(--fill-0, #334C9C)"/>
<path id="Vector_8" d="M73.9517 63.2037C72.5666 63.2037 71.6762 62.9051 71.1321 62.2582C70.588 61.6112 70.3406 60.4168 70.3406 58.675V36.9767C70.3406 35.9813 70.588 35.1851 71.1321 34.6376C71.6762 34.0902 72.3687 33.7916 73.3086 33.7916C74.2979 33.7916 75.0399 34.0404 75.5346 34.5879C76.0292 35.1353 76.2766 35.9316 76.2766 36.9767V57.9285H87.2085C88.3463 57.9285 89.2367 58.1275 89.8302 58.5754C90.4238 59.0233 90.7701 59.6703 90.7701 60.4666C90.7701 61.4121 90.4733 62.1089 89.9292 62.5568C89.3851 63.0047 88.4452 63.2037 87.2085 63.2037H73.9517Z" fill="var(--fill-0, #334C9C)"/>
<path id="Vector_9" d="M96.4587 63.2037C95.0736 63.2037 94.1833 62.9051 93.6391 62.2582C93.095 61.6112 92.8477 60.4168 92.8477 58.675V38.7683C92.8477 36.9767 93.095 35.7823 93.6391 35.1353C94.1833 34.4883 95.1231 34.1897 96.4587 34.1897H104.175C108.627 34.1897 111.892 35.3841 114.069 37.8227C116.245 40.2115 117.333 43.8942 117.333 48.7714C117.333 51.409 116.938 53.7481 116.146 55.7885C115.355 57.8289 114.168 59.4215 112.634 60.6656C111.496 61.6112 110.161 62.2582 108.726 62.6563C107.242 63.0544 105.214 63.2535 102.543 63.2535H96.4587V63.2037ZM98.6352 39.2659V57.9782H103.384C106.154 57.9782 108.133 57.2317 109.369 55.7885C110.606 54.3453 111.249 51.9565 111.249 48.7216C111.249 45.4868 110.655 43.098 109.518 41.5552C108.38 40.0124 106.55 39.2659 104.126 39.2659H98.6352Z" fill="var(--fill-0, #334C9C)"/>
</g>
<defs>
<clipPath id="clip0_0_4">
<rect width="117.333" height="64" fill="white"/>
</clipPath>
</defs>
</svg>
