<svg width="65.3463" height="288.833" overflow="visible" style="display: block;" viewBox="0 0 65.3463 288.833" fill="none" xmlns="http://www.w3.org/2000/svg">
<path id="Vector" d="M65.3463 151.998C51.1506 154.838 48.3114 160.84 48.3114 189.608V252.185C48.3114 276.19 34.4362 288.833 8.51746 288.833H0V274.311H7.60162C26.2393 274.311 33.7951 267.348 33.7951 250.948V197.854C33.7951 158.366 35.6726 152.044 50.2347 145.081C35.7184 138.438 33.7951 132.117 33.7951 92.6282V37.9767C33.7951 21.2101 26.1935 14.6135 7.60162 14.6135H0V0H8.51746C34.4362 0 48.3114 12.6436 48.3114 36.6482V100.782C48.3114 129.231 51.1506 135.552 65.3463 138.393V151.998Z" fill="var(--fill-0, #F7F076)"/>
</svg>
